<?xml version="1.0" encoding="utf-8"?>
<!-- Generator: Adobe Illustrator 19.0.0, SVG Export Plug-In . SVG Version: 6.00 Build 0)  -->
<svg version="1.1" id="layer" xmlns="http://www.w3.org/2000/svg" xmlns:xlink="http://www.w3.org/1999/xlink" x="0px" y="0px"
	 viewBox="-153 -46 652 652" style="enable-background:new -153 -46 652 652;" xml:space="preserve">
<style type="text/css">
	.st0{fill:#187FC3;}
	.st1{fill:#F9BE00;}
</style>
<path id="XMLID_70_" class="st0" d="M343.9,199c0-3.6-3-6.6-6.6-6.6c-0.5,0-1,0.1-1.5,0.2C277.6,204.7,217,209.5,155,206.1
	c-19.1-1-37.9,0-56.4,1.4c-1.4,0.1-2.8,0.3-4.2,0.5c-14.8,2-29,8.6-40,19.4c-9.8,9.6-16.7,21.9-19.6,35.3c-3.5,16.1-1,32.8,5.8,47.7
	c6.6,14.5,17.2,27,30.3,36.1c14.3,9.6,30,17.1,46.5,22.1c10.4,3.1,19.6,5.1,30.5,6.4c0.2-4.1,6.4-10.6,6.6-13.7
	c0.2-3.1-2.1-5.9-5.2-6.1c-17,0.6-29.5,0.3-45.5-5.7c-16.4-6.1-31.2-16.3-42.9-29.3c-5.6-6.2-10.3-13.1-13.3-21
	c-3-7.9-4.2-16.3-3.8-24.7c1.6-28.2,23.5-52,51.5-56.1c15.5-2.2,31.4,1.8,44.1,11c6.6,4.8,12.2,11,16.3,18c4.7,8,8.6,16.4,11.3,25.2
	c5.7,18.4,6.2,38.5,3.7,57.5c-1,8-2.7,16.1-5,23.8c-1.3,4.4-2.9,8.9-4.6,13.1c-0.3,0.8-0.5,1.6-0.5,2.5c0,3.6,2.9,6.5,6.4,6.6
	c0.4,0,1.2,0,1.6,0c43,0,82.4-15.5,112.9-41.2c0,0,0.1-0.1,0.1-0.1c1.2-1.2,2-2.8,2-4.6c0-1.3-0.5-2.5-1.1-3.6
	c-11.4-19.8-36.3-48.4-36.3-48.4s28.2,25.3,48.4,36.3c1.1,0.6,2.3,1.1,3.6,1.1c1.8,0,3.5-0.7,4.6-1.9c0-0.1,0.1-0.1,0.2-0.2
	c25.6-30.5,41.1-69.9,41.1-112.8C343.9,200.1,343.9,199.6,343.9,199"/>
<path id="XMLID_69_" class="st1" d="M26.3,279.4c-6.9-15.4-11.2-32-12.2-48.9c-0.1-2.3-0.1-5.4-0.1-7.6c0-3.1-2.5-5.7-5.7-5.7
	c-3.1,0-9.8,5.8-14.5,5.8c4.8,37.1,21.5,72.2,47.5,99.1c12.6,13.2,28.3,23.5,46.2,28.3c15.3,4.1,31.6,2.3,45.7-4.9
	c6.8-3.4,13-8,18.2-13.6c5.5-5.9,9.7-13.2,13.7-20.2c4.1-7.5,7.7-15.2,10.9-23.1c3.4-8.4,6.3-17,10-25.3
	c14.3-31.2,34.4-59.7,61.5-81c13.3-10.4,27.8-19.1,43.2-25.9c7.8-3.5,15.9-6.4,24.1-8.9c3.9-1.2,7.9-2.2,11.9-3.2
	c3.6-1.1,5.5-4.9,4.3-8.4c-10-25.2-26-47.9-46.1-66c-0.1-0.2-0.3-0.3-0.4-0.4c-1.2-1-2.7-1.7-4.3-1.7c-1.8,0-3.3,1.1-4.7,2
	c-32.4,22.5-56.2,60-56.2,60s12.6-32.1,39.6-71.7c0.7-1,1-2.2,1-3.4c0-2.2-1.1-4.2-2.8-5.4c-0.2-0.1-0.5-0.3-0.7-0.4
	c-16.6-9.7-34.8-16.7-53.8-20.5c-13.8-2.8-28-3.8-42.1-3.2c0,0-0.1,0-0.1,0c-0.1,0-0.1,0-0.2,0c-3.5,0.1-6.2,3-6.4,6.5
	c-1.8,46.1,7.2,125.4,7.2,125.4S144.9,79.2,129,35.8c-1-2.6-3.3-4.6-6.2-4.6c-0.4,0-0.9,0.1-1.3,0.1c-0.1,0-0.1,0-0.2,0.1
	c-1.1,0.3-2.3,0.6-3.4,0.9c-26.5,7.9-51,22-71,41c-3.5,3.3-6.8,6.7-9.9,10.3c-0.1,0.1-0.1,0.2-0.2,0.2c-1.1,1.2-1.8,2.7-1.8,4.4
	c0,1.8,0.6,3.7,2,4.7c34.6,26.3,60.1,56.3,60.1,56.3s-32.7-24.2-71.7-39.6c-1.1-0.4-2.2-0.9-3.4-0.9c-2.3,0-4.3,1.1-5.4,2.9
	c0,0,0,0.1,0,0.1c-5.7,9.6-10.4,19.7-14.1,30.2c-4.7,13.3-7.8,27.3-9.2,41.4c-0.4,3.6-0.6,7.3,3.1,9.3c1.4,0.8,3.1,0.9,4.7,0.6
	c2.4-0.5,4.8-0.9,7.2-1.3c9.3-1.5,18.7-2.2,28.1-2.1c18.8,0.2,37.6,3.6,55.1,10.2c16.2,6.1,31.1,15.6,42.4,28.9
	c21.2,25.2,32.5,68.4,8.1,95.3c-11.2,12.3-27.7,18.3-44.2,16.8c-8.5-0.8-16-3.8-23.4-7.8c-6.8-3.6-13.2-7.9-18.9-13
	C42.7,309.1,33.1,294.6,26.3,279.4"/>
<path id="XMLID_1_" d="M130.4,468.5c0-1.1,6-0.2,8.8,0.6c2.3,0.7,5.9,1.7,9.7,4.6c2.1,1.7,4.8,4.7,4.8,8.2c0,3.6-2.1,5.4-4.7,5.4
	c-1.4-0.2-2.9-1-4.1-2.3c-1.3-1.3-2.3-3.9-6-8.1C134.6,472,130.4,469.2,130.4,468.5 M126.4,433.6l0-6.8l3-0.9v0
	c0.4-0.1,0.6-0.4,0.6-0.8c0-0.4-0.3-0.8-0.7-0.8v0l-13.7-2v11.4H85.8l0.9,2h70.5c0,0,0.8-1.2,0-2c-0.9-0.8-8.3-5.5-8.3-5.5l-5,5.5
	H126.4z M114.2,471.2L114.2,471.2l-12.1-4.3c-4.5,7.4-8.6,13.5-15.2,19h0c-0.2,0.1-0.3,0.3-0.3,0.5c0,0.3,0.3,0.7,0.7,0.7
	c0.1,0,0.1,0,0.2-0.1v0c0,0,0,0,0,0c5.7-2.1,14.1-7.4,24-14.1l2.4,0c0.5,0,0.8-0.4,0.8-0.9C114.8,471.6,114.6,471.3,114.2,471.2
	 M249,443.3c-1.1-1-9.2-6.1-9.2-6.1l-5.1,6.1h-17.2v-16.5l3-0.9l0,0c0.4-0.1,0.6-0.4,0.6-0.8c0-0.4-0.3-0.8-0.7-0.8v0l-14.2-2v21.2
	h-27.4l0.9,2h26.5c-0.2,10.1-2.5,18-6,23.8c-4.3,7.2-10.9,13.9-21.5,19.8h0c0,0-0.1,0-0.1,0.1h0c-0.2,0.1-0.3,0.3-0.3,0.5
	c0,0.3,0.3,0.6,0.6,0.6c0.1,0,0.1,0,0.2,0c12.8-3.7,23.1-9.5,28.5-16.5c4.6-6,7.8-12.8,8.7-21.6c0.9,7.8,2.9,14.1,5.8,18.8
	c3.7,6.7,9,13,17.4,18.3c0.1,0,0.1,0.1,0.2,0.1c0.1,0,0.2,0.1,0.3,0.1c0.2,0,0.3-0.1,0.5-0.2c0.2-0.1,0.3-0.3,0.4-0.6
	c0.5-3.1,4.6-5.8,7.7-6.9c-9.9-5.5-17.2-12.1-21.1-17.1c-4.7-6-8.1-12.3-9.8-19.1H249C249,445.4,250.1,444.4,249,443.3 M282.3,424.8
	c-0.1,0.2,0,0.4,0.1,0.8c0.9,1.4,3.2,4.8,4.4,7c1.6,2.7,1.7,3.7,2.7,4.7c0.9,0.9,3.9,1.6,5.7,0.3c1.8-1.2,2-3.8,1.3-5.7
	c-0.8-1.9-3.5-5-6.5-6.1C287,424.6,282.8,423.9,282.3,424.8 M297,422.5c-0.2,0.2-0.2,0.5,0,0.8c1,1.3,3,3.9,4.6,6.4
	c2,3.2,2.3,5.1,3.4,6.2c1.7,1.7,4.8,1.4,5.8,0.3c1.5-1.5,2-4,1.4-5.9c-0.9-3-3.7-5.6-7.6-6.9C301.2,422.2,297.6,421.8,297,422.5
	 M281.3,434.4c-0.7-0.1-1,0.4-1.1,0.8c-0.5,1.3-2.4,4-4.1,5.6c-1.6,1.6-3.9,3.4-4.6,5.9c-0.8,2.8,0.1,5.3,2.8,5.9
	c3.5,0.8,6.7-1.3,8-5.9C284,441,282.9,434.7,281.3,434.4 M341,466.8c0,0,1.1-1,0-2c-1.1-1-7.9-6.1-7.9-6.1l-5.7,6.1h-16v-3.2
	c1.8-0.8,3.3-2.8,2.1-3.4l-12.5-1.4v8h-30.5l0.9,2H301l0,16.4h-13.1l0.7,1.6c8.3,0.7,9.8,1.9,10.2,2.9c0.6,1.1,0.5,2.4,1.8,2.4
	c2.5,0,10.8-1.4,10.8-5.6v-17.6H341z M343.1,441.3c0-0.3-0.2-0.6-0.5-0.8l-0.1,0l-10.9-5.4l-3,4.3l-10.4-0.1l12.1-10.7l3.4-0.4
	c0.5,0,0.9-0.4,0.9-0.8c0-0.4-0.2-0.7-0.5-0.8l-12.6-4.5c-2,5-4.4,11.1-7.3,17.3h-32l-0.1,2.1l47.1,0.1l-3.1,9.9l1.3,0.4l12-9.5
	l2.9-0.2v0C342.8,442.1,343.1,441.8,343.1,441.3 M329.5,451.5L329.5,451.5l-10.4-6.8l-3.1,3.3h-31.7l1,2h30.2l-5.8,9.3
	c1,0.2,0.1,1.9,1.8,2.2l14.4-8.7l3.1,0.2h0.1c0.5,0,0.8-0.4,0.8-0.9C329.9,451.9,329.7,451.7,329.5,451.5 M34.1,463.1h13.8v-9.2
	H34.1V463.1z M34.1,451.9h13.8v-8.5H34.1V451.9z M23.7,443.4H10.3v8.5h13.4V443.4z M23.7,453.9H10.3v9.2h13.4V453.9z M46.8,473.8
	c5.8,2.8,12.1,3.3,18.7,4.6l-0.5,0.8c-3.2,1-4.9,4.2-6.3,8.4c-8.2-3.1-14.6-6.4-19.2-11.7c-2-2.3-3.9-4.4-5.5-7.7v20.5L23.7,490
	v-16.5c-10.8,8.6-20.8,11.3-29.5,14.1c0,0-0.1,0.1-0.2,0.1c-0.3,0-0.6-0.3-0.6-0.6c0-0.3,0.1-0.5,0.3-0.6v0
	c9.5-5.4,18.9-11.6,26.9-21.4H10.3v1.6l-10.2,1.5v-30.6l9.7,3.7h13.8v-7.5H-5.8l-0.9-2.1h30.4v-9.6l13.4,2.1
	c0.4,0.1,0.7,0.4,0.7,0.8c0,0.4-0.3,0.7-0.6,0.8h0l-3,1l0,4.9h18.4l4.4-4.9c0,0,6.7,3.9,7.7,4.9c1,1,0,2.1,0,2.1H34.1v7.5h13.2
	l3.3-4.3l9.8,5.6c0.3,0.2,0.6,0.6,0.6,1c0,0.4-0.3,0.8-0.7,1l-2.3,1.1v21l-10.1,1.5v-3.1H34.8C37.7,468.6,41.7,471.5,46.8,473.8
	 M137.5,444.6h-31.4v15.5h31.4V444.6z M150.4,444.1c0.3,0.2,0.6,0.5,0.6,0.9c0,0.4-0.3,0.8-0.7,1l-2.3,1.1v0.3v16.2l-10.5,1.5v-2.9
	l-10.8,0v22.2c0,4.3-8.3,5.6-10.8,5.6c-1.3,0-1.3-1.2-1.8-2.4c-0.5-0.9-2-2.2-10.2-2.9l-0.7-1.6h13.1v-20.9h-10.1v1.7l-10.5,1.5
	v-26.6l10.1,3.7H137l3.3-4.2L150.4,444.1L150.4,444.1 M16.6,511c-0.1,0-0.2-0.1-0.2-0.2v-0.5c0-3.9,0-4.6,0.1-5.4
	c0-0.9,0.2-1.3,0.9-1.4c0.3,0,0.5-0.1,0.7-0.1c0.3,0,0.4-0.1,0.4-0.3c0-0.2-0.2-0.2-0.5-0.2h-6.5c-0.3,0-0.5,0-0.5,0.2
	c0,0.2,0.2,0.3,0.4,0.3c0.3,0,0.7,0,0.9,0.1c0.8,0.2,1,0.6,1,1.4c0,0.8,0,14.3-0.1,15.3c-0.1,0.8-0.2,1.3-0.7,1.4
	c-0.2,0-0.5,0.1-0.9,0.1c-0.3,0-0.4,0.1-0.4,0.2c0,0.2,0.2,0.3,0.5,0.3h6.8c0.3,0,0.5,0,0.5-0.3c0-0.1-0.1-0.2-0.4-0.2
	c-0.3,0-0.9-0.1-1.2-0.1c-0.7-0.1-0.8-0.7-0.9-1.4c-0.1-1.1-0.1-3.1-0.1-5.4v-2.2c0-0.2,0.1-0.2,0.2-0.2h9.3c0.1,0,0.2,0.1,0.2,0.2
	v2.2c0,2.3,0,4.4-0.1,5.4c-0.1,0.8-0.2,1.3-0.7,1.4c-0.2,0-0.5,0.1-0.9,0.1c-0.3,0-0.4,0.1-0.4,0.2c0,0.2,0.2,0.3,0.5,0.3h6.8
	c0.3,0,0.5,0,0.5-0.3c0-0.1-0.1-0.2-0.4-0.2c-0.4,0-0.9-0.1-1.2-0.1c-0.7-0.1-0.9-0.7-0.9-1.4c-0.1-1.1-0.1-14.5-0.1-15.4
	c0.1-0.9,0.2-1.3,0.9-1.4c0.3,0,0.5-0.1,0.7-0.1c0.3,0,0.5-0.1,0.5-0.3c0-0.2-0.2-0.2-0.5-0.2H24c-0.4,0-0.5,0-0.5,0.2
	c0,0.2,0.2,0.3,0.4,0.3c0.3,0,0.8,0,0.9,0.1c0.8,0.2,1,0.6,1.1,1.4c0.1,0.8,0.1,1.5,0.1,5.4v0.5c0,0.1-0.1,0.2-0.2,0.2H16.6z
	 M55.5,499.1c0.1,1.1,0.1,12.2,0.1,12.2c0,4.9,1.2,7.4,2.9,9c2.3,2.3,5.5,2.3,7.2,2.3c2.1,0,4.4-0.4,6.7-2.5
	c2.7-2.5,3.1-6.5,3.1-10.2c0,0,0-9.8,0.1-10.9c0.1-1.2,0.3-1.8,1.2-1.9c0.4-0.1,0.6-0.1,0.9-0.1c0.4,0,0.6-0.1,0.6-0.3
	c0-0.2-0.2-0.3-0.7-0.3h-7.4c-0.4,0-0.7,0.1-0.7,0.3c0,0.2,0.2,0.3,0.5,0.3c0.4,0,0.9,0,1.2,0.1c1.1,0.2,1.3,0.8,1.4,1.9
	c0.1,1.1,0.1,11.5,0.1,11.5c0,3.5-0.1,6.6-1.9,8.5c-1.3,1.3-3,1.8-4.5,1.8c-1.1,0-2.6-0.1-4-1.4c-1.6-1.4-2.6-3.4-2.6-8.4
	c0,0,0-10.9,0.1-12c0.1-1.2,0.3-1.8,1.2-1.9c0.4-0.1,0.6-0.1,0.9-0.1c0.3,0,0.5-0.1,0.5-0.3c0-0.2-0.2-0.3-0.7-0.3H53
	c-0.5,0-0.7,0.1-0.7,0.3c0,0.2,0.2,0.3,0.5,0.3c0.5,0,1,0,1.3,0.1C55.1,497.4,55.4,497.9,55.5,499.1 M167.9,504.8
	c0.1,0.8,0.1,14.4-0.1,15.5c-0.1,0.8-0.2,1.2-0.7,1.3c-0.2,0.1-0.5,0.1-0.9,0.1c-0.3,0-0.4,0.1-0.4,0.2c0,0.2,0.2,0.3,0.5,0.3h6.8
	c0.3,0,0.5-0.1,0.5-0.3c0-0.1-0.1-0.2-0.4-0.2c-0.4,0-0.9-0.1-1.2-0.1c-0.7-0.1-0.9-0.5-1-1.2c-0.1-1.1-0.1-14.7,0-15.5
	c0-0.9,0.2-1.3,0.9-1.4c0.3-0.1,0.5-0.1,0.7-0.1c0.2,0,0.4-0.1,0.4-0.3c0-0.2-0.2-0.2-0.5-0.2h-6.1c-0.4,0-0.6,0-0.6,0.2
	c0,0.2,0.2,0.3,0.4,0.3c0.3,0,0.6,0,0.9,0.1C167.6,503.5,167.8,504,167.9,504.8 M199.6,515.5c0,0,0,3.6-0.1,4.6
	c-0.1,0.8-0.2,1.3-0.7,1.4c-0.2,0-0.5,0.1-0.9,0.1c-0.2,0-0.4,0.1-0.4,0.2c0,0.2,0.2,0.3,0.6,0.3h6.7c0.3,0,0.5-0.1,0.5-0.3
	c0-0.1-0.1-0.2-0.4-0.2c-0.3,0-0.8-0.1-1.2-0.1c-0.7-0.1-0.9-0.7-1-1.4c-0.1-1.1-0.1-4.6-0.1-4.6c0-0.8,0-1.6,0.4-2.5
	c0.4-1.1,3.8-7.1,4.6-8.1c0.5-0.7,0.8-1,1.3-1.2c0.3-0.2,0.8-0.3,1.1-0.3c0.3,0,0.5-0.1,0.5-0.3c0-0.2-0.2-0.2-0.4-0.2h-4.9
	c-0.3,0-0.4,0.1-0.4,0.2c0,0.2,0.2,0.2,0.4,0.3c0.4,0.1,0.5,0.4,0.5,0.6c0,0.3-0.1,0.8-0.3,1.3c-0.3,0.8-3.4,6.4-3.6,7
	c-0.4-0.7-3.8-6.9-4.1-7.6c-0.2-0.4-0.3-0.7-0.3-0.9c0-0.2,0.1-0.4,0.3-0.4c0.3-0.1,0.5-0.1,0.5-0.3c0-0.2-0.1-0.2-0.4-0.2h-5.6
	c-0.3,0-0.5,0.1-0.5,0.2c0,0.2,0.2,0.2,0.4,0.2c0.3,0,0.7,0.2,1,0.3c0.4,0.3,1.1,0.9,1.6,1.9c0.9,1.3,4.1,7,4.3,7.4
	C199.4,513.6,199.6,514.2,199.6,515.5 M231,513c0,7.4-3.7,8.2-5.4,8.2c-4.7,0-7.6-4.2-7.6-9.5c0-6.3,3-8,5.8-8
	C227.7,503.7,231,507.3,231,513 M214.6,512.5c0,4.5,2.8,10,9.8,10c6.2,0,10-4.6,10-10.5c0-5.9-3.7-9.6-9.8-9.6
	C217.3,502.5,214.6,508.1,214.6,512.5 M286.5,513c0,7.4-3.7,8.2-5.4,8.2c-4.7,0-7.7-4.2-7.7-9.5c0-6.3,3-8,5.8-8
	C283.2,503.7,286.5,507.3,286.5,513 M270.1,512.5c0,4.5,2.8,10,9.8,10c6.2,0,10.1-4.6,10.1-10.5c0-5.9-3.7-9.6-9.8-9.6
	C272.8,502.5,270.1,508.1,270.1,512.5 M307.5,503.3c0.3,0,0.7,0.2,1,0.3c0.5,0.3,1.1,0.9,1.7,1.9c0.9,1.3,4.1,6.9,4.2,7.4
	c0.3,0.7,0.6,1.3,0.6,2.7c0,0,0,3.6-0.1,4.6c-0.1,0.8-0.2,1.3-0.7,1.4c-0.2,0-0.5,0.1-0.9,0.1c-0.3,0-0.4,0.1-0.4,0.2
	c0,0.2,0.2,0.3,0.5,0.3h6.7c0.3,0,0.5-0.1,0.5-0.3c0-0.1-0.1-0.2-0.4-0.2c-0.3,0-0.9-0.1-1.2-0.1c-0.7-0.1-0.9-0.7-1-1.4
	c-0.1-1.1-0.1-4.6-0.1-4.6c0-0.9,0-1.7,0.4-2.6c0.4-1.1,3.8-7.1,4.6-8.1c0.5-0.7,0.8-1,1.3-1.2c0.3-0.2,0.8-0.3,1.1-0.3
	c0.2,0,0.5-0.1,0.5-0.3c0-0.2-0.2-0.2-0.4-0.2h-4.9c-0.3,0-0.4,0-0.4,0.2c0,0.2,0.2,0.2,0.4,0.3c0.4,0.1,0.5,0.4,0.5,0.6
	c0,0.3-0.1,0.8-0.3,1.3c-0.4,0.8-3.4,6.4-3.7,7c-0.4-0.7-3.8-6.9-4.1-7.6c-0.2-0.4-0.3-0.6-0.3-0.9c0-0.2,0.1-0.4,0.3-0.5
	c0.4-0.1,0.5-0.1,0.5-0.3c0-0.2-0.1-0.2-0.4-0.2h-11.1c-0.3,0-0.4,0-0.4,0.2c0,0.2,0.1,0.2,0.3,0.3c0.2,0.1,0.3,0.2,0.3,0.5
	c0,0.5-0.6,1.1-1.2,1.9c-0.7,0.9-4.3,4.7-5.1,5.6H296v-1.1c0-3.9,0-4.6,0.1-5.4c0-0.9,0.3-1.3,0.9-1.4c0.3-0.1,0.4-0.1,0.7-0.1
	c0.2,0,0.3-0.1,0.3-0.3c0-0.2-0.2-0.2-0.5-0.2h-6.3c-0.3,0-0.5,0-0.5,0.2c0,0.2,0.2,0.3,0.4,0.3c0.4,0,0.8,0,1,0.1
	c0.8,0.2,1,0.6,1,1.4c0,0.8,0,14.3-0.1,15.3c-0.1,0.8-0.2,1.3-0.7,1.4c-0.2,0-0.5,0.1-0.9,0.1c-0.3,0-0.4,0.1-0.4,0.2
	c0,0.2,0.2,0.3,0.5,0.3h6.5c0.3,0,0.5-0.1,0.5-0.3c0-0.1-0.1-0.2-0.3-0.2c-0.3,0-0.8-0.1-1.2-0.1c-0.6-0.1-0.8-0.7-0.9-1.4
	c-0.1-1.1-0.1-3.1-0.1-5.5v-2.3h0.1l0.2,0.4c0.5,0.7,5.3,6.6,6.4,7.6c1.1,1,1.7,1.5,3,1.7c0.5,0,1,0,1.7,0h2.1
	c0.5,0,0.6-0.1,0.6-0.3c0-0.2-0.1-0.2-0.3-0.2c-0.3,0-0.8-0.1-1.5-0.4c-1.3-0.5-2.4-1.7-3.5-2.8c-0.9-1-5.7-6.3-6.6-7.5
	c0.8-0.9,4.5-4.8,5.2-5.5c1.1-1.1,1.9-1.6,2.6-1.9C306.5,503.4,307.2,503.3,307.5,503.3 M340.3,513c0,7.4-3.7,8.2-5.4,8.2
	c-4.7,0-7.7-4.2-7.7-9.5c0-6.3,3-8,5.8-8C337,503.7,340.3,507.3,340.3,513 M323.9,512.5c0,4.5,2.8,10,9.8,10c6.2,0,10-4.6,10-10.5
	c0-5.9-3.7-9.6-9.8-9.6C326.6,502.5,323.9,508.1,323.9,512.5 M144.9,512.6c0.7-0.6,1.4-1.8,1.4-3.9c0-3.6-2.3-4.7-3.7-4.7
	c-0.6,0-1,0-1.3,0.1c-0.1,0.1-0.2,0.2-0.2,0.3v7.8c0,0.3,0.1,0.4,0.2,0.5c0.5,0.2,1.3,0.3,1.9,0.3
	C144.1,513,144.4,512.9,144.9,512.6 M157.9,524.4c0.4,0,0.8-0.1,0.8,0.2c0,0.2-0.4,0.4-0.8,0.5c-0.4,0.1-1.9,0.3-4,0.1
	c-1.7-0.1-3-0.6-4.3-1.6c-1.1-0.9-2.2-2.3-3.2-4c-1.1-1.8-2.3-4.6-2.6-5.2c-0.1-0.2-0.3-0.2-0.4-0.2l-2.1-0.1
	c-0.1,0-0.2,0.1-0.2,0.2v0.4c0,2.3,0,4.4,0.1,5.4c0.1,0.8,0.2,1.3,0.9,1.4c0.4,0,0.9,0.1,1.2,0.1c0.2,0,0.3,0.1,0.3,0.2
	c0,0.2-0.2,0.2-0.5,0.2h-6.5c-0.3,0-0.5-0.1-0.5-0.2c0-0.1,0.1-0.2,0.4-0.2c0.4,0,0.6-0.1,0.9-0.1c0.5-0.1,0.6-0.7,0.7-1.4
	c0.1-1.1,0.1-3.1,0.1-5.4v-4.5c0-3.9,0-4.6-0.1-5.4c-0.1-0.9-0.2-1.3-1-1.4c-0.2-0.1-0.6-0.1-1-0.1c-0.3,0-0.4-0.1-0.4-0.3
	c0-0.2,0.2-0.2,0.5-0.2h6.7c1.5,0,3.1,0.2,4.4,1.1c0.7,0.5,1.7,1.8,1.7,3.5c0,1.9-0.7,3.6-3.2,5.7c1.6,3.1,4.5,7.1,6.1,8.7
	C153.8,523.6,155.7,524.2,157.9,524.4 M9.5,502.7c-0.1,0-0.3,0.1-0.7,0.2H-4.9c-0.6-0.1-0.8-0.4-1.1-0.4c-0.1,0-0.2,0.2-0.3,0.5
	c-0.1,0.3-0.6,3-0.6,3v0c0,0.2,0.1,0.3,0.2,0.3c0.1,0,0.2-0.1,0.2-0.2c0,0,0,0,0,0c0.1-0.2,0.2-0.6,0.4-1c0.3-0.6,0.9-0.7,2.4-0.8
	h3.6c0,0,0,14.7-0.1,15.8c-0.1,0.8-0.2,1.3-0.7,1.4c-0.2,0.1-0.5,0.1-0.9,0.1c-0.3,0-0.4,0.1-0.4,0.2c0,0.2,0.2,0.3,0.5,0.3h6.9
	c0.3,0,0.5-0.1,0.5-0.3c0-0.1-0.1-0.2-0.4-0.2c-0.4,0-0.9-0.1-1.2-0.1c-0.7-0.1-0.9-0.6-0.9-1.4c-0.1-1.1-0.1-15.8-0.1-15.8h3
	c2.2,0,2.8,0.8,2.9,1.4l0,0.5c0,0.1,0.1,0.3,0.2,0.3c0.2,0,0.3-0.1,0.3-0.3c0,0,0-2.8,0-3.1C9.7,502.8,9.7,502.7,9.5,502.7
	 M190.7,502.7c-0.1,0-0.3,0.1-0.7,0.2h-13.7c-0.6-0.1-0.9-0.4-1.1-0.4c-0.1,0-0.2,0.2-0.3,0.5c-0.1,0.3-0.6,3-0.6,3c0,0,0,0,0,0
	c0,0.2,0.1,0.3,0.2,0.3c0.1,0,0.2-0.1,0.2-0.2h0v0c0.1-0.2,0.2-0.6,0.5-1c0.4-0.6,0.9-0.7,2.3-0.8h3.6c0,0,0,14.7-0.1,15.8
	c-0.1,0.8-0.2,1.3-0.7,1.4c-0.2,0.1-0.5,0.1-0.9,0.1c-0.3,0-0.4,0.1-0.4,0.2c0,0.2,0.2,0.3,0.5,0.3h6.8c0.3,0,0.5-0.1,0.5-0.3
	c0-0.1-0.1-0.2-0.4-0.2c-0.4,0-0.9-0.1-1.2-0.1c-0.7-0.1-0.9-0.6-0.9-1.4c-0.1-1.1-0.1-15.8-0.1-15.8h3c2.2,0,2.8,0.8,2.9,1.4l0,0.5
	c0,0.1,0.1,0.3,0.2,0.3c0.2,0,0.3-0.1,0.3-0.3c0,0,0-2.8,0-3.1C190.9,502.8,190.8,502.7,190.7,502.7 M273.4,496.2
	c-0.2,0-0.4,0.1-0.9,0.2h-18.3c-0.8-0.1-1.1-0.5-1.4-0.5c-0.2,0-0.3,0.2-0.4,0.7c-0.1,0.3-0.7,4-0.7,4h0c0,0,0,0.1,0,0.1
	c0,0.2,0.2,0.4,0.4,0.4c0.1,0,0.3-0.1,0.3-0.2l0,0c0.1-0.3,0.3-0.8,0.6-1.4c0.5-0.7,1.3-0.9,3.2-1h4.8c0,0,0,19.7-0.2,21.1
	c-0.1,1-0.3,1.7-0.9,1.9c-0.3,0.1-0.7,0.1-1.2,0.1c-0.4,0-0.5,0.1-0.5,0.3c0,0.3,0.2,0.4,0.6,0.4h9.2c0.3,0,0.6-0.1,0.6-0.4
	c0-0.2-0.1-0.3-0.5-0.3c-0.5,0-1.2-0.1-1.7-0.1c-1-0.1-1.2-0.9-1.3-1.8c-0.2-1.5-0.2-21.1-0.2-21.1h4.1c2.9,0.1,3.7,1,3.8,1.9
	l0.1,0.7c0,0.2,0.2,0.4,0.3,0.4c0.2,0,0.4-0.2,0.4-0.4c0,0,0-3.7,0-4.2C273.6,496.4,273.6,496.2,273.4,496.2 M45.1,518.5
	c0-0.2-0.1-0.3-0.3-0.3c-0.1,0-0.2,0.1-0.3,0.2c-0.2,1-0.8,1.7-1.4,2c-0.6,0.3-1.7,0.3-2.3,0.3c-2.5,0-2.6-0.3-2.6-2.1
	c0-0.8,0-6,0-6c0-0.2,0-0.3,0.2-0.3c0.6,0,3,0,3.4,0.1c0.9,0.1,1.3,0.5,1.4,1c0.1,0.3,0,0.7,0,0.9c0,0.2,0.1,0.3,0.3,0.3
	c0.2,0,0.2-0.1,0.2-0.2v0h0l0.3-3.7v0c0-0.1-0.1-0.2-0.3-0.2c-0.1,0-0.2,0-0.2,0.1c0,0,0,0,0,0c0,0,0,0.1-0.1,0.2
	c-0.2,0.3-0.6,0.3-1.2,0.4c-0.5,0-3.3,0-3.9,0c-0.2,0-0.2-0.1-0.2-0.3v-6.5c0-0.2,0-0.3,0.2-0.3c0.5,0,3,0,3.4,0.1
	c1.2,0.2,1.5,0.5,1.6,0.9c0.1,0.3,0.1,0.8,0.1,1c0,0.2,0.1,0.3,0.3,0.3c0.2,0,0.2-0.1,0.2-0.2c0.1-0.3,0.3-3.2,0.3-3.4
	c0-0.1,0-0.2-0.2-0.2c-0.1,0-0.3,0.1-0.4,0.1c-0.2,0.1-0.6,0.1-1,0.1h-9.6c-0.4,0-0.5,0-0.5,0.2c0,0.2,0.1,0.3,0.4,0.3
	c0.4,0,0.8,0,1,0.1c0.8,0.2,1,0.6,1,1.4c0.1,0.8,0.1,14.3-0.1,15.3c-0.1,0.8-0.2,1.3-0.7,1.4c-0.2,0.1-0.5,0.1-0.9,0.1
	c-0.3,0-0.4,0.1-0.4,0.2c0,0.2,0.2,0.3,0.5,0.3h9.8c0.9,0,1.2,0.1,1.3-0.6C44.8,521,45.1,518.6,45.1,518.5L45.1,518.5z M123,503.3
	c0.3,0,0.8,0,1,0.1c0.8,0.2,1,0.6,1,1.4c0,0.8,0,14.3-0.1,15.3c-0.1,0.8-0.2,1.3-0.7,1.4c-0.3,0-0.5,0.1-0.9,0.1
	c-0.3,0-0.4,0.1-0.4,0.2c0,0.2,0.2,0.3,0.5,0.3h9.8c0.9,0,1.2,0.1,1.3-0.6c0.1-0.5,0.4-3,0.4-3h0c0,0,0,0,0-0.1
	c0-0.2-0.1-0.3-0.3-0.3c-0.1,0-0.2,0.1-0.2,0.2c-0.3,1.1-0.8,1.7-1.5,2c-0.6,0.3-1.7,0.3-2.3,0.3c-2.4,0-2.5-0.3-2.6-2.1
	c0-0.8,0-6,0-6c0-0.2,0-0.3,0.2-0.3c0.6,0,3,0,3.4,0.1c0.9,0.1,1.2,0.5,1.4,1c0.1,0.3,0.1,0.7,0,0.9c0,0.1,0.1,0.3,0.3,0.3
	c0.1,0,0.2-0.1,0.3-0.2v0l0.3-3.7v0c0-0.1-0.1-0.3-0.3-0.3c-0.1,0-0.2,0.1-0.2,0.1c0,0,0,0,0,0h0c0,0-0.1,0.1-0.1,0.2
	c-0.2,0.3-0.6,0.3-1.2,0.4c-0.6,0.1-3.4,0.1-3.9,0.1c-0.2,0-0.2-0.1-0.2-0.3v-6.5c0-0.2,0.1-0.3,0.2-0.3c0.5,0,3,0,3.5,0.1
	c1.2,0.2,1.4,0.5,1.6,0.9c0.1,0.3,0.1,0.8,0.1,1c0,0.1,0.1,0.3,0.3,0.3c0.1,0,0.2-0.1,0.3-0.2c0.1-0.3,0.3-3.2,0.3-3.4
	c0-0.1,0-0.2-0.1-0.2c-0.1,0-0.3,0.1-0.4,0.1c-0.2,0-0.6,0.1-1.1,0.1H118c-0.5,0-0.7,0-0.7,0.2c0,0.2,0.2,0.2,0.4,0.2
	c0.3,0,0.7,0,1,0.1c0.2,0.1,0.3,0.3,0.3,0.5c0,0.2-0.1,0.6-0.2,1c-0.6,1.7-3.7,9.9-4.8,12.7H114l-4.2-11.6c-0.3-0.9-0.6-1.7-0.6-2
	c0-0.2,0-0.4,0.2-0.5c0.2-0.2,0.6-0.2,0.9-0.2c0.2,0,0.4-0.1,0.4-0.3c0-0.2-0.2-0.2-0.5-0.2H91.3c-0.4,0-0.6,0-0.6,0.2
	c0,0.2,0.1,0.3,0.4,0.3c0.3,0,0.9,0,1.3,0.2c0.6,0.3,0.8,0.7,0.8,2.3l0.3,11.5h-0.1c-0.4-0.4-12.6-14.1-12.9-14.5
	c-0.4-0.5-0.6-0.8-0.9-0.8c-0.2,0-0.3,0.4-0.3,0.9L79,518.4c0,2.2-0.1,3-0.8,3.2c-0.3,0.1-0.8,0.1-1.1,0.1c-0.2,0-0.4,0-0.4,0.2
	c0,0.3,0.2,0.3,0.5,0.3h5.6c0.4,0,0.6,0,0.6-0.3c0-0.2-0.2-0.2-0.4-0.2c-0.4,0-0.8,0-1.3-0.2c-0.5-0.2-0.8-0.8-0.8-2.8l-0.2-11.2
	h0.1c0.4,0.5,11.4,13.2,12.9,14.7c0.3,0.3,0.5,0.6,0.8,0.6c0.2,0,0.3-0.2,0.3-0.8l0.2-16.4c0-1.4,0.2-2,0.9-2.2
	c0.3-0.1,0.6-0.1,0.9-0.1c0.3,0,0.8,0,1.1,0.1c0.5,0.1,0.8,0.6,0.8,1.4c0,0.8,0,14.4-0.1,15.5c-0.1,0.7-0.2,1.2-0.7,1.3
	c-0.2,0-0.5,0.1-0.9,0.1c-0.3,0-0.4,0.1-0.4,0.2c0,0.2,0.2,0.3,0.5,0.3h6.8c0.3,0,0.5-0.1,0.5-0.3c0-0.1-0.1-0.2-0.4-0.2
	c-0.4,0-0.9-0.1-1.3-0.1c-0.7-0.1-0.9-0.5-0.9-1.3c-0.1-1.1-0.1-14.7-0.1-15.5c0.1-0.9,0.2-1.3,0.9-1.4c0.3-0.1,0.5-0.1,0.7-0.1
	c0.2,0,0.5,0,0.8,0.1c0.9,0.3,1.3,0.5,1.9,1.9l6.1,15.6c0.5,1.2,0.6,1.6,0.9,1.6c0.3,0,0.5-0.4,1.1-1.9c0.5-1.3,5.2-12.3,6.1-14.7
	c0.6-1.6,1-2.1,1.3-2.3C122.2,503.3,122.7,503.3,123,503.3 M240.2,512.4c0.6,0,3,0,3.5,0.1c0.9,0.1,1.2,0.5,1.3,1
	c0.1,0.3,0,0.6,0,0.9c0,0.2,0.1,0.3,0.3,0.3c0.1,0,0.2-0.1,0.2-0.2v0c0,0,0,0,0,0l0.3-3.7v0c0-0.2-0.1-0.2-0.2-0.2
	c-0.1,0-0.2,0-0.2,0.1c0,0,0,0,0,0c0,0.1-0.1,0.1-0.1,0.2c-0.2,0.3-0.6,0.3-1.2,0.4c-0.6,0.1-3.4,0.1-3.9,0.1
	c-0.2,0-0.2-0.1-0.2-0.2v-6.4c0-0.3,0.1-0.4,0.2-0.4l3.7,0.1c0.9,0,1.4,0.4,1.5,0.8c0.2,0.3,0.2,0.9,0.2,1.1c0,0.2,0.1,0.3,0.2,0.3
	c0.2,0,0.3-0.1,0.3-0.2c0,0,0,0,0-0.1c0,0,0.3-3.2,0.3-3.3c0-0.1,0-0.2-0.2-0.2c-0.1,0-0.2,0.1-0.4,0.1c-0.2,0.1-0.5,0.1-1,0.1h-9.9
	c-0.4,0-0.6,0-0.6,0.2c0,0.2,0.2,0.2,0.4,0.2c0.4,0,0.8,0,1,0.1c0.8,0.2,1,0.6,1,1.4c0.1,0.8,0.1,14.3-0.1,15.3
	c-0.1,0.8-0.2,1.3-0.7,1.4c-0.2,0.1-0.5,0.1-0.8,0.1c-0.3,0-0.4,0.1-0.4,0.2c0,0.2,0.2,0.3,0.5,0.3h6.8c0.4,0,0.5-0.1,0.5-0.3
	c0-0.1-0.1-0.2-0.4-0.2c-0.4,0-0.9,0-1.2-0.1c-0.7-0.1-0.9-0.6-0.9-1.4c-0.1-1.1-0.1-7.5-0.1-7.5
	C240.1,512.5,240.1,512.4,240.2,512.4 M160.1,510.5l-0.7-0.5c-2-1.6-2.6-2.5-2.6-3.7c0-1.5,1.1-2.6,2.9-2.6c1.6,0,2.3,0.8,2.6,1.2
	c0.5,0.7,0.6,1.5,0.6,1.7c0,0.1,0,0.2,0,0.3c0,0,0,0.1,0,0.1c0,0,0,0.1,0.1,0.1c0.1,0,0.1,0.1,0.2,0.1c0.2,0,0.3-0.1,0.3-0.3
	l0.1-3.4v-0.2c0-0.2-0.1-0.3-0.3-0.3c-0.6-0.2-1.7-0.4-3.2-0.4c-3.4,0-5.6,2-5.6,4.8c0,2.1,0.9,3.9,3.6,6.1l1.1,0.9
	c2,1.7,2.4,2.8,2.4,4.1c0,1.3-1.1,2.9-3.2,2.9c-1.5,0-2.9-0.7-3.5-2.6c-0.1-0.4-0.2-1-0.2-1.3c0-0.1,0-0.1,0-0.2
	c0-0.1-0.1-0.3-0.2-0.3c-0.1,0-0.3,0.1-0.3,0.3l-0.1,3.8c0,0.6,0.1,0.7,0.5,0.9c1,0.5,2.1,0.7,3.5,0.7c1.3,0,2.6-0.2,3.9-1
	c1.7-1.2,2.3-2.9,2.3-4.4C164.1,514.6,163,512.9,160.1,510.5"/>
</svg>
